<svg xmlns="http://www.w3.org/2000/svg" xmlns:xlink="http://www.w3.org/1999/xlink" width="851" zoomAndPan="magnify" viewBox="0 0 638.25 236.249991" height="315" preserveAspectRatio="xMidYMid meet" version="1.0"><defs><g/><clipPath id="67c88087f3"><path d="M 101 160 L 318 160 L 318 227 L 101 227 Z M 101 160 " clip-rule="nonzero"/></clipPath><clipPath id="8846853c44"><path d="M 115.320312 130.722656 L 317.921875 160.980469 L 303.679688 256.367188 L 101.074219 226.109375 Z M 115.320312 130.722656 " clip-rule="nonzero"/></clipPath><clipPath id="d39dad53a2"><path d="M 115.320312 130.722656 L 317.921875 160.980469 L 303.679688 256.367188 L 101.074219 226.109375 Z M 115.320312 130.722656 " clip-rule="nonzero"/></clipPath><clipPath id="0dc56ba2b3"><path d="M 8 11 L 114 11 L 114 112 L 8 112 Z M 8 11 " clip-rule="nonzero"/></clipPath><clipPath id="b1933c9930"><path d="M -3.371094 24.53125 L 101.007812 1.402344 L 121.707031 94.832031 L 17.328125 117.960938 Z M -3.371094 24.53125 " clip-rule="nonzero"/></clipPath><clipPath id="90d8561e21"><path d="M -3.371094 24.53125 L 101.007812 1.402344 L 121.707031 94.832031 L 17.328125 117.960938 Z M -3.371094 24.53125 " clip-rule="nonzero"/></clipPath></defs><g clip-path="url(#67c88087f3)"><g clip-path="url(#8846853c44)"><g clip-path="url(#d39dad53a2)"><path fill="#497418" d="M 102.429688 220.875 C 106.683594 215.46875 274.289062 150.378906 317.773438 161.96875 C 273.09375 165.367188 161.402344 204.019531 126.277344 223.042969 C 128.6875 223.179688 131.914062 223.015625 136.355469 222.359375 C 135.019531 224.648438 122.640625 226.453125 117.175781 226.65625 C 108.378906 227.234375 98.660156 225.65625 102.425781 220.898438 Z M 102.429688 220.875 " fill-opacity="1" fill-rule="nonzero"/></g></g></g><g fill="#497418" fill-opacity="1"><g transform="translate(75.436179, 191.613101)"><g><path d="M 64 -78.019531 C 69.644531 -100.085938 65.082031 -127.804688 45.492188 -123.117188 C 43.175781 -122.566406 40.453125 -121.347656 37.324219 -119.46875 C 19.585938 -109.386719 -16.777344 -66.980469 -9.347656 -37.496094 C -5.035156 -20.261719 16.957031 -16.484375 29.800781 -17.109375 C 35.402344 -17.320312 41.230469 -18.148438 46.914062 -18.003906 C 50.113281 -18.015625 54.914062 -18.410156 52.585938 -12.394531 C 49.796875 -4.382812 36.324219 10.140625 29.019531 11.886719 C 26.347656 12.527344 25.066406 11.890625 23.128906 10.097656 C 22.601562 9.46875 22.027344 9.417969 21.671875 9.503906 C 20.957031 9.675781 20.8125 10.648438 21.425781 11.632812 C 24.035156 17.035156 28.765625 19.480469 34.644531 18.074219 C 41.945312 16.328125 49.488281 8.496094 53.628906 2.988281 C 57.78125 -3.277344 64.449219 -17.117188 54.875 -23.296875 C 41.816406 -32.226562 7.757812 -20.3125 0.664062 -34.996094 C -7.90625 -52.71875 26.03125 -96.617188 33.695312 -103.160156 C 36.964844 -106.015625 43.917969 -112.382812 49.617188 -113.75 C 51.21875 -114.132812 52.730469 -114.117188 53.96875 -113.660156 C 59.765625 -111.46875 59.15625 -95.128906 55.21875 -79.308594 C 53.417969 -72.664062 46.609375 -49.191406 39.839844 -47.570312 L 38.949219 -47.359375 C 38.414062 -47.230469 38.101562 -46.96875 37.828125 -46.527344 C 36.972656 -45.378906 38.078125 -44.703125 38.875 -44.515625 C 40.25 -44.28125 41.539062 -44.398438 42.785156 -44.699219 C 54.1875 -47.425781 61.5 -68.007812 64 -78.019531 Z M 64 -78.019531 "/></g></g></g><g fill="#497418" fill-opacity="1"><g transform="translate(144.364313, 175.121224)"><g><path d="M 30.695312 -22.03125 C 30.085938 -23.015625 29.835938 -24.839844 30.042969 -27.902344 C 29.734375 -32.347656 30.175781 -40.738281 33.054688 -44.441406 C 34.265625 -45.671875 34.046875 -45.808594 32.679688 -46.800781 C 30.386719 -48.511719 28.214844 -48.933594 26.433594 -48.507812 C 25.722656 -48.335938 25.050781 -47.988281 24.246094 -47.417969 C 24.433594 -52.925781 23.960938 -58.835938 19.019531 -62.175781 C 17.695312 -62.988281 15.835938 -63.671875 14.054688 -63.246094 C 12.097656 -62.777344 10.214844 -61.199219 8.234375 -58.464844 C -0.367188 -47.179688 -11.75 -6.605469 3.855469 -3.558594 C 5.054688 -3.28125 5.851562 -3.09375 6.917969 -3.351562 C 7.277344 -3.4375 7.589844 -3.699219 7.945312 -3.785156 C 12.242188 -7.070312 16.140625 -19.117188 19.394531 -29.121094 C 19.480469 -28.765625 19.523438 -28.585938 19.472656 -28.011719 C 19.910156 -23.03125 20.785156 -17.023438 25.15625 -14.492188 C 26.480469 -13.679688 27.898438 -13.265625 29.5 -13.648438 C 39.117188 -15.949219 47.921875 -42.914062 50.246094 -48.929688 C 49.246094 -50.761719 48.710938 -50.636719 47.285156 -50.292969 C 46.691406 -48.835938 36.523438 -22.863281 31.894531 -21.753906 C 31.535156 -21.667969 31.136719 -21.761719 30.695312 -22.03125 Z M 16.148438 -50.566406 C 17.273438 -52.152344 18.128906 -53.300781 19.019531 -53.511719 C 20.445312 -53.851562 21.484375 -51.089844 22.179688 -45.039062 C 20.875 -43.410156 20.410156 -41.414062 19.945312 -39.421875 C 15.527344 -28.761719 10.523438 -12.6875 7.851562 -12.046875 C 4.847656 -13.589844 10.992188 -41.421875 16.148438 -50.566406 Z M 16.148438 -50.566406 "/></g></g></g><g fill="#497418" fill-opacity="1"><g transform="translate(188.000979, 164.680632)"><g><path d="M 16.070312 -91.035156 C 15.359375 -90.863281 15.085938 -90.421875 14.453125 -89.140625 C 11.355469 -81.621094 8.367188 -67.347656 11.21875 -59.367188 C 11.652344 -58.339844 12.136719 -57.890625 12.3125 -57.933594 C 12.492188 -57.976562 12.585938 -58.375 12.949219 -59.214844 C 16.324219 -67.933594 19.300781 -76.742188 22.898438 -85.324219 C 23.082031 -86.121094 23.9375 -87.265625 23.148438 -88.207031 C 21.925781 -90.175781 18.742188 -91.671875 16.070312 -91.035156 Z M 27.109375 -44.902344 C 27.109375 -44.902344 26.929688 -44.859375 26.835938 -44.460938 C 21.921875 -32.738281 16.867188 -20.796875 8.90625 -10.792969 C 7.828125 -9.78125 7.378906 -9.296875 6.667969 -9.128906 C 6.488281 -9.085938 6.488281 -9.085938 6.269531 -9.21875 C 3.652344 -9.914062 6.390625 -21.300781 6.71875 -23.074219 C 8.578125 -31.050781 11.019531 -39.734375 13.761719 -47.167969 L 13.851562 -47.566406 C 14.960938 -51.597656 10.75 -52.664062 7.78125 -53.269531 C 6.625 -53.371094 5.828125 -53.558594 5.292969 -53.429688 C 2.265625 -52.703125 -3.085938 -19.976562 -3.84375 -15.273438 C -4.667969 -8.488281 1.234375 -3.496094 6.222656 -4.691406 C 13.347656 -6.394531 23.425781 -28.015625 26.160156 -34.695312 C 26.988281 -37.527344 28.171875 -40.449219 29.359375 -43.367188 C 28.703125 -44.53125 28 -45.113281 27.109375 -44.902344 Z M 27.109375 -44.902344 "/></g></g></g><g fill="#497418" fill-opacity="1"><g transform="translate(211.333246, 159.098109)"><g><path d="M 24.980469 -49.855469 L 24.761719 -49.988281 C 22.898438 -54.628906 18.84375 -62.132812 12.785156 -60.683594 C 11.71875 -60.425781 10.378906 -59.730469 9.03125 -58.277344 C 1.496094 -51.203125 -7.351562 -19.707031 -0.507812 -6.847656 C 1.625 -2.648438 5.300781 -1.457031 8.152344 -2.136719 C 9.753906 -2.523438 11.050781 -3.398438 11.820312 -4.898438 C 14.851562 -10.332031 19.089844 -20.949219 22.390625 -30.777344 C 19.554688 -9.574219 13.832031 24.75 -1.132812 28.328125 C -7.898438 29.949219 -11.078125 23.742188 -12.484375 17.863281 C -12.699219 16.972656 -12.945312 15.148438 -14.414062 15.3125 C -15.703125 15.433594 -15.058594 17.347656 -14.84375 18.238281 C -12.578125 26.925781 -7.207031 35.996094 3.304688 33.484375 C 4.726562 33.140625 6.425781 32.359375 8.121094 31.578125 L 8.253906 31.355469 C 27.375 20.753906 31.460938 -27.488281 34.515625 -43.847656 C 35.308594 -47.617188 35.839844 -51.699219 36.589844 -55.644531 C 37.296875 -59.769531 32.765625 -59.8125 29.738281 -59.089844 C 28.847656 -58.875 27.824219 -58.441406 27.6875 -58.222656 C 26.425781 -56.414062 25.867188 -54.019531 25.21875 -51.230469 Z M 23.195312 -44.71875 L 23.0625 -44.5 C 18.613281 -30.816406 9.984375 -7.851562 7.3125 -7.210938 C 1.257812 -5.761719 9.546875 -52.1875 17.5625 -54.105469 L 17.917969 -54.191406 C 19.207031 -54.308594 19.988281 -52.613281 20.941406 -50.207031 C 21.25 -49.714844 22.71875 -45.921875 23.195312 -44.71875 Z M 23.195312 -44.71875 "/></g></g></g><g fill="#497418" fill-opacity="1"><g transform="translate(250.695296, 149.68027)"><g><path d="M -1.140625 -10.273438 C 0.757812 -4.699219 5.34375 -1.277344 11.222656 -2.683594 C 27.964844 -6.691406 39.359375 -52.730469 19.679688 -57.058594 C 18.660156 -57.378906 17.371094 -57.261719 16.125 -56.960938 C 11.316406 -55.8125 7.578125 -50.964844 5.625 -46.539062 C 2.953125 -45.902344 2.003906 -44.355469 1.132812 -41.699219 C -1.929688 -33.246094 -4.339844 -18.921875 -1.140625 -10.273438 Z M 8.144531 -23.417969 C 9.132812 -28.738281 10.859375 -37.25 12.773438 -41.847656 C 13.316406 -42.730469 14.441406 -44.320312 13.695312 -45.082031 C 13.34375 -45.75 12.105469 -46.207031 11.128906 -46.351562 C 12.324219 -50.027344 14.609375 -52.269531 16.75 -52.78125 C 17.816406 -53.035156 18.65625 -52.671875 19.632812 -52.527344 C 32.332031 -47.46875 17.507812 -9.460938 10.207031 -7.714844 C 8.960938 -7.417969 8.078125 -7.957031 7.472656 -9.695312 C 6.222656 -13.351562 7.636719 -21.601562 8.144531 -23.417969 Z M 8.144531 -23.417969 "/></g></g></g><g fill="#497418" fill-opacity="1"><g transform="translate(287.920046, 140.773806)"><g><path d="M 35.667969 -61.074219 C 33.460938 -62.429688 30.972656 -62.585938 28.660156 -62.03125 C 26.378906 -60.546875 8.140625 -18.707031 6.3125 -13.75 C 7.285156 -17.5625 8.605469 -20.703125 9.261719 -24.25 C 11.949219 -35.058594 12.203125 -33.992188 14.890625 -44.804688 C 15.535156 -46.839844 16.03125 -47.902344 14.222656 -49.164062 L 13.78125 -49.433594 C 11.796875 -50.652344 9.269531 -50.992188 7.128906 -50.480469 C 4.457031 -49.839844 3.339844 -49.007812 2.867188 -46.257812 C -0.664062 -31.101562 -2.246094 -28.273438 -3.824219 -12.832031 C -4.285156 -6.882812 -2.582031 -3.714844 3.179688 -2.457031 C 4.15625 -2.3125 5.171875 -1.992188 5.707031 -2.117188 C 6.777344 -2.375 7.140625 -3.214844 7.554688 -4.632812 C 12.765625 -19.0625 19.214844 -33.03125 25.882812 -46.867188 C 23.71875 -39.382812 18.28125 -10.964844 31.207031 -11.234375 C 31.785156 -11.183594 32.140625 -11.269531 32.675781 -11.394531 C 42.828125 -13.824219 52.839844 -37.3125 56.351562 -46.25 C 56.859375 -48.066406 57.628906 -49.566406 57.949219 -50.585938 C 57.292969 -51.746094 56.234375 -52.246094 55.699219 -52.117188 C 55.519531 -52.078125 55.386719 -51.855469 55.386719 -51.855469 C 55.15625 -51.234375 53.523438 -47.832031 51.746094 -43.453125 L 51.519531 -42.832031 L 51.382812 -42.613281 C 47.980469 -35.582031 42.640625 -21.691406 35.949219 -18.957031 C 28.328125 -16.191406 36.933594 -50.265625 37.828125 -55.1875 L 37.878906 -55.765625 C 38.257812 -58.113281 37.789062 -60.074219 35.667969 -61.074219 Z M 35.667969 -61.074219 "/></g></g></g><g clip-path="url(#0dc56ba2b3)"><g clip-path="url(#b1933c9930)"><g clip-path="url(#90d8561e21)"><path fill="#497418" d="M 29.804688 95.367188 L 48.390625 111.078125 C 48.390625 111.078125 55.078125 79.15625 84.191406 62.234375 C 84.191406 62.234375 57.449219 74.113281 45.132812 100.148438 L 37.289062 93.546875 L 34.429688 91.191406 L 35.890625 87.136719 C 30.378906 88.035156 24.953125 89.445312 19.566406 84.636719 C 14.175781 79.832031 16.246094 63.085938 27.042969 56.710938 C 27.511719 56.421875 28.011719 56.171875 28.488281 55.925781 C 29.007812 61.1875 29.785156 68.035156 29.671875 68.777344 C 32.175781 54.390625 44.710938 0.949219 68.097656 32.09375 C 68.097656 32.09375 68.105469 30.769531 67.921875 28.792969 C 81.179688 15.339844 87.824219 26.238281 90.292969 36.441406 C 62.203125 39.929688 49.011719 72.253906 47.25 76.929688 L 47.234375 76.957031 L 47.1875 77.058594 C 47.085938 77.335938 47.027344 77.488281 47.027344 77.488281 L 48.328125 75.53125 C 62.574219 54.445312 79.890625 47.410156 87.519531 45.210938 L 99.609375 56.152344 C 99.609375 56.152344 63.375 73.609375 56.210938 109.113281 C 56.210938 109.113281 75.203125 72.289062 113.34375 59.273438 L 96.351562 41.445312 C 96.71875 11.78125 76.613281 11.023438 66.792969 18.78125 C 66.355469 19.109375 65.96875 19.335938 65.65625 19.5 C 63.515625 14.644531 59.480469 10.625 51.9375 12.273438 C 50.703125 12.546875 49.382812 12.957031 47.941406 13.554688 C 30.578125 20.785156 28.828125 39.820312 28.023438 49.960938 C 28.015625 50.03125 28.019531 50.148438 28.019531 50.261719 C 27.207031 50.558594 26.570312 50.816406 26.226562 50.9375 C 24.410156 51.59375 22.648438 52.425781 20.929688 53.433594 C 7.859375 61.144531 6.496094 78.570312 11.902344 87.214844 C 16.636719 94.808594 22.414062 95.40625 29.757812 95.351562 Z M 29.804688 95.367188 " fill-opacity="1" fill-rule="evenodd"/></g></g></g><g fill="#497418" fill-opacity="1"><g transform="translate(272.97999, 62.14878)"><g><path d="M 4.375 -4.15625 C 3.625 -3.394531 2.796875 -2.757812 1.890625 -2.25 C 0.992188 -1.738281 0.171875 -1.421875 -0.578125 -1.296875 L -1.515625 -3.703125 C -0.816406 -3.816406 -0.0976562 -4.066406 0.640625 -4.453125 C 1.378906 -4.847656 2.023438 -5.332031 2.578125 -5.90625 C 3.191406 -6.539062 3.550781 -7.097656 3.65625 -7.578125 C 3.769531 -8.066406 3.671875 -8.460938 3.359375 -8.765625 C 3.128906 -8.992188 2.851562 -9.085938 2.53125 -9.046875 C 2.207031 -9.015625 1.859375 -8.898438 1.484375 -8.703125 C 1.117188 -8.515625 0.65625 -8.242188 0.09375 -7.890625 C -0.800781 -7.316406 -1.566406 -6.878906 -2.203125 -6.578125 C -2.835938 -6.285156 -3.503906 -6.15625 -4.203125 -6.1875 C -4.910156 -6.226562 -5.585938 -6.5625 -6.234375 -7.1875 C -6.796875 -7.738281 -7.15625 -8.382812 -7.3125 -9.125 C -7.46875 -9.875 -7.382812 -10.679688 -7.0625 -11.546875 C -6.738281 -12.410156 -6.144531 -13.285156 -5.28125 -14.171875 C -4.675781 -14.785156 -4.015625 -15.316406 -3.296875 -15.765625 C -2.585938 -16.210938 -1.882812 -16.519531 -1.1875 -16.6875 L -0.15625 -14.359375 C -1.519531 -13.953125 -2.632812 -13.304688 -3.5 -12.421875 C -4.113281 -11.796875 -4.460938 -11.234375 -4.546875 -10.734375 C -4.640625 -10.234375 -4.519531 -9.820312 -4.1875 -9.5 C -3.863281 -9.1875 -3.453125 -9.125 -2.953125 -9.3125 C -2.453125 -9.507812 -1.785156 -9.878906 -0.953125 -10.421875 C -0.0546875 -10.984375 0.703125 -11.414062 1.328125 -11.71875 C 1.953125 -12.019531 2.617188 -12.15625 3.328125 -12.125 C 4.035156 -12.09375 4.707031 -11.765625 5.34375 -11.140625 C 5.894531 -10.597656 6.242188 -9.953125 6.390625 -9.203125 C 6.546875 -8.460938 6.460938 -7.65625 6.140625 -6.78125 C 5.816406 -5.90625 5.226562 -5.03125 4.375 -4.15625 Z M 4.375 -4.15625 "/></g></g></g><g fill="#497418" fill-opacity="1"><g transform="translate(286.18939, 49.782158)"><g><path d="M 7 -2.84375 C 5.25 -2.070312 3.671875 -1.957031 2.265625 -2.5 C 0.859375 -3.039062 -0.242188 -4.210938 -1.046875 -6.015625 L -4.09375 -12.890625 L -1.25 -14.140625 L 1.75 -7.375 C 2.726562 -5.175781 4.125 -4.484375 5.9375 -5.296875 C 6.832031 -5.691406 7.394531 -6.257812 7.625 -7 C 7.863281 -7.738281 7.726562 -8.675781 7.21875 -9.8125 L 4.21875 -16.578125 L 7.03125 -17.828125 L 10.078125 -10.953125 C 10.878906 -9.148438 11.003906 -7.539062 10.453125 -6.125 C 9.910156 -4.71875 8.757812 -3.625 7 -2.84375 Z M 7 -2.84375 "/></g></g></g><g fill="#497418" fill-opacity="1"><g transform="translate(305.645073, 42.388648)"><g><path d="M 13.8125 -13.546875 L 13.921875 -0.109375 L 11.375 -0.09375 L 4.609375 -8.1875 L 4.671875 -0.03125 L 1.59375 -0.015625 L 1.484375 -13.453125 L 4.0625 -13.46875 L 10.796875 -5.359375 L 10.734375 -13.515625 Z M 13.8125 -13.546875 "/></g></g></g><g fill="#497418" fill-opacity="1"><g transform="translate(326.823694, 43.518073)"><g><path d="M 9.375 3.890625 L 8.421875 -0.5625 L 8.28125 -0.625 L 5.78125 -1.671875 L 4.34375 1.796875 L 1.46875 0.609375 L 6.625 -11.796875 L 12 -9.5625 C 13.101562 -9.101562 13.984375 -8.523438 14.640625 -7.828125 C 15.296875 -7.128906 15.703125 -6.351562 15.859375 -5.5 C 16.015625 -4.644531 15.898438 -3.753906 15.515625 -2.828125 C 15.128906 -1.898438 14.578125 -1.191406 13.859375 -0.703125 C 13.140625 -0.222656 12.300781 0.015625 11.34375 0.015625 L 12.46875 5.171875 Z M 12.609375 -4.03125 C 12.898438 -4.738281 12.898438 -5.367188 12.609375 -5.921875 C 12.316406 -6.484375 11.738281 -6.941406 10.875 -7.296875 L 8.53125 -8.28125 L 6.734375 -3.953125 L 9.078125 -2.96875 C 9.941406 -2.613281 10.675781 -2.53125 11.28125 -2.71875 C 11.882812 -2.914062 12.328125 -3.351562 12.609375 -4.03125 Z M 12.609375 -4.03125 "/></g></g></g><g fill="#497418" fill-opacity="1"><g transform="translate(344.756777, 52.682158)"><g><path d="M 9.984375 -9.125 L 12.34375 -7.09375 L 3.5625 3.078125 L 1.203125 1.046875 Z M 9.984375 -9.125 "/></g></g></g><g fill="#497418" fill-opacity="1"><g transform="translate(353.899489, 61.23649)"><g><path d="M 2.96875 5.234375 C 2.40625 4.335938 1.984375 3.382812 1.703125 2.375 C 1.429688 1.375 1.332031 0.5 1.40625 -0.25 L 3.96875 -0.578125 C 3.90625 0.128906 3.972656 0.890625 4.171875 1.703125 C 4.367188 2.515625 4.675781 3.257812 5.09375 3.9375 C 5.5625 4.6875 6.019531 5.171875 6.46875 5.390625 C 6.914062 5.609375 7.320312 5.601562 7.6875 5.375 C 7.96875 5.207031 8.128906 4.960938 8.171875 4.640625 C 8.222656 4.316406 8.195312 3.957031 8.09375 3.5625 C 8 3.164062 7.84375 2.640625 7.625 1.984375 C 7.289062 0.984375 7.050781 0.144531 6.90625 -0.53125 C 6.769531 -1.21875 6.804688 -1.898438 7.015625 -2.578125 C 7.234375 -3.265625 7.722656 -3.84375 8.484375 -4.3125 C 9.148438 -4.71875 9.863281 -4.910156 10.625 -4.890625 C 11.382812 -4.867188 12.144531 -4.59375 12.90625 -4.0625 C 13.675781 -3.53125 14.382812 -2.742188 15.03125 -1.703125 C 15.488281 -0.972656 15.84375 -0.207031 16.09375 0.59375 C 16.351562 1.394531 16.484375 2.160156 16.484375 2.890625 L 13.96875 3.296875 C 13.90625 1.878906 13.550781 0.644531 12.90625 -0.40625 C 12.4375 -1.144531 11.972656 -1.613281 11.515625 -1.8125 C 11.054688 -2.019531 10.628906 -2.003906 10.234375 -1.765625 C 9.847656 -1.523438 9.6875 -1.140625 9.75 -0.609375 C 9.8125 -0.078125 10.015625 0.660156 10.359375 1.609375 C 10.679688 2.609375 10.910156 3.445312 11.046875 4.125 C 11.191406 4.8125 11.160156 5.488281 10.953125 6.15625 C 10.753906 6.832031 10.273438 7.40625 9.515625 7.875 C 8.859375 8.28125 8.148438 8.46875 7.390625 8.4375 C 6.628906 8.40625 5.863281 8.125 5.09375 7.59375 C 4.320312 7.0625 3.613281 6.273438 2.96875 5.234375 Z M 2.96875 5.234375 "/></g></g></g><g fill="#497418" fill-opacity="1"><g transform="translate(362.589711, 77.171182)"><g><path d="M 4.765625 11.296875 L 2.3125 11.78125 L 0.3125 1.5625 L 13.5 -1.03125 L 15.453125 8.9375 L 13.015625 9.421875 L 11.65625 2.484375 L 8.78125 3.046875 L 9.984375 9.171875 L 7.609375 9.640625 L 6.40625 3.515625 L 3.359375 4.109375 Z M 4.765625 11.296875 "/></g></g></g><g fill="#497418" fill-opacity="1"><g transform="translate(364.784706, 96.057711)"><g/></g></g></svg>